<?xml version="1.0" encoding="utf-8"?>
<!-- Generator: Adobe Illustrator 24.1.2, SVG Export Plug-In . SVG Version: 6.00 Build 0)  -->
<svg version="1.1" id="Livello_1" xmlns="http://www.w3.org/2000/svg" xmlns:xlink="http://www.w3.org/1999/xlink" x="0px" y="0px"
	 width="114.111px" height="197.094px" viewBox="0 0 114.111 197.094" enable-background="new 0 0 114.111 197.094"
	 xml:space="preserve">
<g>
	<g>
		<path fill="#303031" d="M59.423,168.701c-6.561,0-13.037-2.187-17.862-6.428c-8.782-7.721-9.787-20.594-9.778-29.605
			c0-0.552,0.448-0.999,1-0.999c0,0,0,0,0.001,0c0.552,0,1,0.449,0.999,1.001c-0.009,9.352,1.017,20.997,9.098,28.102
			c7.81,6.866,20.32,7.906,29.746,2.471c9.133-5.265,13.948-16.205,11.448-26.012c-2.697-10.584-12.857-17.06-22.439-21.998
			c-2.739-1.411-5.594-2.827-8.355-4.196C36.49,102.71,19.128,94.101,8.74,77.866c-11.876-18.562-9.386-43.373,6.054-60.337
			C30.015,0.806,55.777-3.123,76.052,8.186c2.482,1.385,4.865,2.989,7.083,4.768c0.431,0.346,0.5,0.975,0.155,1.406
			c-0.346,0.431-0.974,0.501-1.406,0.155c-2.131-1.709-4.421-3.251-6.807-4.581C55.605-0.929,30.874,2.832,16.274,18.876
			C1.44,35.173-0.965,58.987,10.425,76.788c10.088,15.768,27.198,24.251,43.744,32.456c2.768,1.373,5.63,2.792,8.383,4.21
			c9.978,5.142,20.568,11.929,23.462,23.282c2.716,10.659-2.493,22.535-12.387,28.239C69.284,167.477,64.33,168.701,59.423,168.701z
			"/>
	</g>
	<g>
		<path fill="#303031" d="M60.225,194.334c-21.461,0-42.537-13.597-50.451-34.17c-1.427-3.708-2.432-7.603-2.987-11.574
			c-0.077-0.547,0.305-1.053,0.852-1.129c0.545-0.08,1.052,0.304,1.129,0.852c0.534,3.821,1.5,7.567,2.873,11.134
			c9.095,23.642,36.24,37.716,60.515,31.371c24.736-6.465,42.166-32.055,38.06-55.88c-4.014-23.282-26.425-36.964-45.502-46.284
			c-0.914-0.446-1.868-0.906-2.852-1.381c-14.5-6.991-36.413-17.556-35.426-36.512c0.65-12.491,10.579-22.694,23.094-23.734
			c12.545-1.04,23.152,7.505,25.814,20.782c0.108,0.542-0.242,1.069-0.784,1.177c-0.542,0.107-1.069-0.242-1.177-0.784
			C70.887,35.758,61.37,28.043,49.695,29.018c-11.523,0.958-20.664,10.349-21.263,21.845C27.514,68.491,48.706,78.709,62.729,85.47
			c0.988,0.476,1.944,0.938,2.861,1.385c19.505,9.528,42.428,23.566,46.595,47.741c2.129,12.354-0.995,25.285-8.797,36.413
			c-7.479,10.668-18.679,18.593-30.728,21.742C68.563,193.823,64.386,194.334,60.225,194.334z"/>
	</g>
	<g>
		<path fill="#303031" d="M59.883,172.535c-1.706,0-3.43-0.127-5.159-0.387c-10.688-1.604-19.691-8.044-24.084-17.226
			c-0.239-0.498-0.028-1.095,0.47-1.333c0.496-0.24,1.095-0.029,1.333,0.47c4.106,8.583,12.547,14.606,22.578,16.111
			c10.188,1.528,20.186-1.808,26.742-8.928c8.666-9.41,9.963-22.816,3.156-32.604c-6.504-9.351-17.708-15.137-27.592-20.243
			l-4.334-2.234C33.807,96.304,12.061,85.13,6.551,62.211C1.298,40.36,13.863,16.802,35.156,8.579
			c21.333-8.237,46.462,1.642,57.21,22.49c1.313,2.547,2.391,5.231,3.205,7.978c0.156,0.53-0.146,1.086-0.675,1.243
			c-0.532,0.156-1.086-0.146-1.243-0.675c-0.778-2.627-1.81-5.194-3.064-7.63C80.302,12.032,56.269,2.57,35.877,10.445
			C15.839,18.183,3.555,41.195,8.495,61.743c5.295,22.027,26.608,32.979,45.412,42.641l4.337,2.236
			c10.091,5.212,21.529,11.12,28.317,20.878c7.347,10.563,5.979,24.996-3.327,35.1C77.345,168.993,68.876,172.535,59.883,172.535z"
			/>
	</g>
	<g>
		<path fill="#303031" d="M59.55,190.168c-24.097,0.001-45.31-18.572-48.59-42.792c-0.449-3.318-0.443-6.667-0.437-9.906l0.001-0.55
			c0.001-0.552,0.448-0.999,1-0.999h0.001c0.552,0.001,1,0.449,0.999,1.001l-0.001,0.551c-0.006,3.318-0.012,6.452,0.419,9.634
			c3.2,23.633,24.151,41.662,47.781,41.046c23.812-0.623,44.321-20.406,45.717-44.101c1.482-25.167-20.921-40.132-40.605-50.359
			c-1.878-0.976-3.895-1.977-5.993-3.018c-15.675-7.783-37.144-18.441-37.621-38.238c-0.305-12.612,7.954-24.269,20.083-28.347
			c12.216-4.109,25.875,0.596,33.214,11.439c0.31,0.458,0.19,1.079-0.268,1.389c-0.458,0.31-1.079,0.19-1.389-0.268
			c-6.838-10.102-19.556-14.487-30.92-10.665c-11.307,3.802-19.005,14.66-18.722,26.404c0.449,18.591,20.445,28.518,36.511,36.495
			c2.109,1.047,4.137,2.054,6.025,3.035c20.22,10.505,43.23,25.938,41.679,52.251c-1.456,24.706-22.836,45.334-47.662,45.982
			C60.366,190.162,59.957,190.168,59.55,190.168z"/>
	</g>
	<g>
		<path fill="#303031" d="M60.439,177.125c-5.682,0-11.462-1.359-16.869-4.083c-11.249-5.668-18.754-16.112-20.075-27.938
			c-0.062-0.549,0.334-1.043,0.883-1.104c0.548-0.065,1.043,0.333,1.104,0.883c1.246,11.151,8.344,21.011,18.988,26.374
			c10.521,5.301,22.52,5.147,32.099-0.415c10.959-6.363,17.984-18.933,17.084-30.568c-0.797-10.305-7.78-19.736-20.755-28.032
			c-5.802-3.709-12.352-6.919-18.686-10.022c-14.875-7.289-30.256-14.826-38.857-29.82c-5.75-10.022-6.917-22.328-3.202-33.762
			c3.681-11.328,11.771-20.507,22.198-25.184c10.552-4.732,22.986-4.543,34.115,0.519c11.205,5.097,19.578,14.419,22.973,25.577
			c1.191,3.918,1.792,7.99,1.786,12.102c-0.001,0.552-0.448,0.999-1,0.999c-0.001,0-0.001,0-0.001,0
			c-0.553-0.001-1-0.449-0.999-1.001c0.006-3.914-0.566-7.789-1.7-11.517C86.297,29.523,78.32,20.652,67.637,15.793
			c-10.607-4.825-22.44-5.013-32.468-0.515c-9.912,4.446-17.608,13.185-21.114,23.977c-3.541,10.898-2.435,22.616,3.034,32.149
			c8.297,14.462,23.399,21.862,38.003,29.019c6.384,3.128,12.985,6.363,18.882,10.134c13.532,8.652,20.824,18.598,21.672,29.562
			c0.973,12.569-6.29,25.61-18.074,32.452C72.347,175.604,66.448,177.125,60.439,177.125z"/>
	</g>
	<g>
		<path fill="#303031" d="M59.475,185.524c-6.865,0-13.786-1.564-20.17-4.814c-2.699-1.374-5.269-3.015-7.638-4.877
			c-0.435-0.341-0.51-0.97-0.168-1.404c0.342-0.436,0.971-0.51,1.404-0.168c2.268,1.781,4.727,3.352,7.31,4.667
			c17.582,8.95,39.425,4.523,51.937-10.523c7.619-9.164,11.219-21.053,9.631-31.805c-1.429-9.672-7.409-19.123-16.839-26.611
			c-7.419-5.893-16.275-10.119-24.838-14.206C48.368,90.181,36.234,84.39,27.411,74.193c-7.992-9.238-11-20.488-8.253-30.867
			c2.736-10.335,10.5-19.05,20.262-22.744c8.299-3.14,17.918-2.5,26.389,1.756c8.735,4.388,15.196,11.993,17.728,20.863
			c0.152,0.531-0.156,1.084-0.687,1.236c-0.531,0.153-1.085-0.156-1.236-0.687c-2.378-8.334-8.466-15.487-16.702-19.625
			c-7.974-4.006-17.006-4.616-24.783-1.673c-9.169,3.469-16.463,11.663-19.036,21.385c-2.575,9.729,0.279,20.316,7.833,29.046
			c8.548,9.88,20.491,15.58,32.04,21.092c8.665,4.135,17.624,8.411,25.221,14.444c9.829,7.806,16.069,17.709,17.573,27.886
			c1.67,11.305-2.095,23.782-10.072,33.375C85.128,179.975,72.402,185.524,59.475,185.524z"/>
	</g>
	<g>
		<path fill="#303031" d="M59.519,181.664c-22.327,0-40.491-18.164-40.491-40.491c0-0.552,0.448-1,1-1s1,0.448,1,1
			c0,21.224,17.267,38.491,38.491,38.491c21.224,0,38.491-17.267,38.491-38.491c0-20.306-22.215-33.341-38.924-41.379l-9.751-5.012
			c-23.559-11.29-35.517-25.806-35.517-43.133c0-20.72,16.857-37.578,37.577-37.578s37.578,16.857,37.578,37.578
			c0,0.552-0.447,1-1,1s-1-0.448-1-1c0-19.618-15.96-35.578-35.578-35.578c-19.617,0-35.577,15.96-35.577,35.578
			c0,16.491,11.576,30.4,34.406,41.342l9.752,5.013c17.172,8.26,40.034,21.737,40.034,43.169
			C100.01,163.5,81.845,181.664,59.519,181.664z"/>
	</g>
	<g>
		<g>
			<path fill="#303031" d="M9.424,147.402c-0.127,0.014-0.26-0.021-0.367-0.107l-1.539-1.235l-1.235,1.539
				c-0.173,0.215-0.487,0.25-0.703,0.077s-0.25-0.487-0.077-0.703l1.547-1.929c0.173-0.215,0.487-0.25,0.703-0.077l1.929,1.548
				c0.215,0.173,0.25,0.487,0.077,0.703C9.673,147.326,9.551,147.388,9.424,147.402z"/>
		</g>
	</g>
	<g>
		<g>
			<path fill="#303031" d="M13.294,136.037c-0.128,0.006-0.258-0.037-0.36-0.129l-1.46-1.327l-1.327,1.46
				c-0.186,0.204-0.502,0.219-0.706,0.034c-0.204-0.186-0.22-0.502-0.034-0.706l1.663-1.83c0.186-0.204,0.502-0.219,0.706-0.034
				l1.83,1.663c0.204,0.186,0.22,0.502,0.034,0.706C13.548,135.976,13.422,136.031,13.294,136.037z"/>
		</g>
	</g>
	<g>
		<g>
			<path fill="#303031" d="M34.557,131.925c-0.128,0.002-0.257-0.045-0.356-0.141l-1.417-1.373l-1.373,1.417
				c-0.192,0.198-0.509,0.203-0.707,0.011s-0.203-0.509-0.011-0.707l1.721-1.776c0.192-0.198,0.509-0.203,0.707-0.011l1.776,1.721
				c0.198,0.192,0.203,0.509,0.011,0.707C34.812,131.872,34.685,131.923,34.557,131.925z"/>
		</g>
	</g>
	<g>
		<g>
			<path fill="#303031" d="M21.699,140.245c-0.128,0.006-0.258-0.037-0.36-0.129l-1.46-1.327l-1.327,1.46
				c-0.186,0.204-0.502,0.219-0.706,0.034c-0.204-0.186-0.22-0.502-0.034-0.706l1.663-1.83c0.186-0.204,0.502-0.219,0.706-0.034
				l1.83,1.663c0.204,0.186,0.22,0.502,0.034,0.706C21.952,140.184,21.827,140.239,21.699,140.245z"/>
		</g>
	</g>
	<g>
		<g>
			<path fill="#303031" d="M26.205,143.857c-0.127,0.013-0.26-0.022-0.367-0.109l-1.533-1.242l-1.242,1.533
				c-0.174,0.215-0.489,0.248-0.703,0.074c-0.215-0.174-0.248-0.489-0.074-0.703l1.557-1.921c0.174-0.215,0.489-0.248,0.703-0.074
				l1.921,1.557c0.215,0.174,0.248,0.489,0.074,0.703C26.455,143.781,26.333,143.843,26.205,143.857z"/>
		</g>
	</g>
	<g>
		<g>
			<path fill="#303031" d="M32.82,153.095c-0.116,0.054-0.253,0.063-0.382,0.015l-1.851-0.682l-0.682,1.851
				c-0.095,0.259-0.383,0.392-0.642,0.296c-0.259-0.095-0.392-0.383-0.296-0.642l0.855-2.32c0.095-0.259,0.383-0.392,0.642-0.296
				l2.32,0.855c0.259,0.095,0.392,0.383,0.296,0.642C33.032,152.944,32.936,153.042,32.82,153.095z"/>
		</g>
	</g>
	<g>
		<g>
			<path fill="#303031" d="M32.986,173.343c-0.085,0.096-0.206,0.159-0.344,0.168l-1.969,0.122l0.122,1.969
				c0.017,0.276-0.192,0.513-0.468,0.53s-0.513-0.192-0.53-0.468l-0.154-2.468c-0.017-0.276,0.192-0.513,0.468-0.53l2.468-0.154
				c0.276-0.017,0.513,0.192,0.53,0.468C33.119,173.119,33.071,173.247,32.986,173.343z"/>
		</g>
	</g>
</g>
<g>
</g>
<g>
</g>
<g>
</g>
<g>
</g>
<g>
</g>
<g>
</g>
</svg>
